<svg xmlns="http://www.w3.org/2000/svg" data-name="Layer 2" viewBox="0 0 197.1 196.9"><path d="M182.4 62c-4.6-11.2-11.9-21.5-20.3-29.9S143 17.4 131.8 12.8c-10.7-4.5-22.7-6.7-35.1-6.7s-25.1.4-35.8 4.9C49.8 15.6 40.4 24.4 32 32.8S13.8 50.1 9.2 61.3c-4.5 10.8-3 23.9-3 36.3s.9 24.5 5.4 35.3c4.6 11.1 14.1 19 22.4 27.4 8.4 8.4 16 18.4 27.2 23.1 10.8 4.5 23.2 7.5 35.5 7.5s24.5-3.7 35.3-8.1c11.1-4.6 21.2-11.8 29.6-20.2s15.2-18.7 19.8-29.8c4.5-10.7 9.5-22.7 9.5-35.1s-4.1-24.7-8.6-35.5Zm-59.7 88.2-19.6-2.9 5.6-37.9-41 31.6-12.1-15.8 36-27.7-36-27.7L67.7 54l41 31.6-5.6-37.9 19.6-2.9 7.8 52.7z" style="fill:#70c7ba;stroke-width:0"/></svg>