<svg xmlns="http://www.w3.org/2000/svg" width="180" height="180"><path fill="#FDFDF9" d="m115 3 1.911.586C136.705 9.84 152.945 22.075 165 39l1.574 2.18c12.76 19.357 16.68 44.624 12.301 67.195q-.861 3.334-1.875 6.625l-.586 1.911C170.16 136.705 157.925 152.945 141 165l-2.18 1.574c-19.357 12.76-44.624 16.68-67.195 12.301Q68.291 178.014 65 177l-1.911-.586c-24.433-7.72-42.45-24.192-54.358-46.717C5.687 123.68 3.61 117.55 2 111l-.68-2.55c-5.293-23.315.587-47.401 12.739-67.505C28.109 19.63 48.629 6.277 73.313.563 86.968-1.357 101.81-1.058 115 3"/><path d="M129 29c8.701 7.108 14.707 16.396 16.766 27.555.492 5.139.377 10.29.234 15.445l11-3c2 2 2 2 2.375 5.688-.178 5.46-2.227 9.288-6.14 12.976-3.435 2.745-6.116 4.386-10.423 5.273-2.091.563-2.091.563-3.812 2.063-1.304 2.918-2.26 5.826-3.144 8.895-4.525 15.716-15.846 32.774-28.981 42.73-3.567 1.706-5.963 1.81-9.875 1.375-2.761-1.017-3.68-1.362-5-4a435 435 0 0 0-6.84 3.473l-3.097 1.59-3.09 1.597c-5.71 2.573-11.78 3.475-17.785 1.34-3.239-2.96-3.417-5.726-4.188-10l-3.187 1.438c-6.581 2.79-13.323 3.879-20.126 1.312-3.197-2.082-5.17-4.023-6.281-7.733-.502-8.615 3.868-15.339 7.887-22.642 2.14-3.899 4.202-7.838 6.266-11.777l1.214-2.312C49.878 86.668 53.985 72.27 58.075 57.51c3.98-14.056 9.865-24.996 22.886-32.518C96.87 17.251 114.713 18.302 129 29"/><path d="m115 3 1.911.586C136.705 9.84 152.945 22.075 165 39l1.574 2.18c12.76 19.357 16.68 44.624 12.301 67.195q-.861 3.334-1.875 6.625l-.586 1.911C170.16 136.705 157.925 152.945 141 165l-2.18 1.574c-19.357 12.76-44.624 16.68-67.195 12.301Q68.291 178.014 65 177l-1.911-.586c-24.433-7.72-42.45-24.192-54.358-46.717C5.687 123.68 3.61 117.55 2 111l-.68-2.55c-5.293-23.315.587-47.401 12.739-67.505C28.109 19.63 48.629 6.277 73.313.563 86.968-1.357 101.81-1.058 115 3M32 28l-1.992 1.777C15.61 43.375 6.57 63.59 5.625 83.227c-.733 26.226 6.327 48.064 24.563 67.398C47.609 167.329 70.042 175.431 94 175c19.899-1.102 38.154-8.77 53-22 .76-.665 1.519-1.33 2.3-2.016 15.055-14.04 24.815-35.44 25.7-55.984l.121-2.273C175.73 70.593 167.666 49.458 153 33l-2.016-2.3C136.594 15.268 114.993 5.84 94 5l-2.117-.121C69.389 4.179 48.518 13.155 32 28"/><path fill="#FCFCF8" d="M122 38c4.53 1.941 7.169 5.021 10 9 2.967 7.489 2.99 15.309.168 22.848-2.201 4.056-5.184 6.857-9.168 9.152-4.127 1.126-7.273.314-11.187-1.375-5.748-5.364-8.105-11.298-8.438-19.125.27-6.371 1.86-11.337 5.625-16.5 4.23-3.862 7.327-4.722 13-4"/><path fill="#F7F7F3" d="M91 70c2 2 2 2 2.375 5.625-.172 5.587-2.166 9.947-5.918 14.07C80.371 96.15 73.513 98.61 64 99a137 137 0 0 1 6.77-3.227C77.55 92.657 83.144 89.584 87 83c1.025-2.98 1.645-5.871 2-9l-3.14.691q-2.055.437-4.11.871l-2.066.46c-3.606.752-6.17 1.04-9.684-.022q3.838-1.514 7.688-3l2.185-.867C86.987 69.404 86.987 69.404 91 70"/><path fill="#060606" d="M121 47c1.154 2.308 1.534 4.472 2 7l4-1c-.75 7.75-.75 7.75-3 10-2.437.375-2.437.375-5 0-2.696-2.325-2.986-3.903-3.5-7.437.62-4.417 2.124-5.777 5.5-8.563"/></svg>