<svg xmlns="http://www.w3.org/2000/svg" width="250" height="250"><path fill="#FEFEFF" d="M0 0h250v250H0z"/><path fill="#6243FF" d="m117.012 75.88 2.388-.004 2.591.01h2.75c2.998 0 5.996.009 8.993.016l6.238.005q8.208.006 16.414.024 8.376.014 16.75.02Q189.57 75.967 206 76c-5.465 5.517-5.465 5.517-8.285 7.402l-1.826 1.236-1.951 1.3q-2.145 1.45-4.29 2.906l-2.286 1.547c-4.126 2.81-8.212 5.68-12.3 8.547l-2.56 1.794a6326 6326 0 0 0-28.67 20.225 1398 1398 0 0 1-22.457 15.606 622 622 0 0 0-21.078 15C96.892 154.08 93.445 156.539 90 159h57c1.93-8.288 1.93-8.288-.812-11.562A86 86 0 0 0 143 145l-5.312-4.312q-2.34-1.85-4.688-3.688c1.459-3.686 3.302-5.161 6.625-7.25l2.477-1.578L144 127c2.69 1.97 5.352 3.974 8 6l1.95 1.488c4.978 4.007 8.612 7.857 9.394 14.38.23 7.673-.58 12.83-5.594 18.82-6.783 5.704-11.4 6.898-20.092 6.766l-3.077.002c-3.338-.003-6.676-.034-10.015-.065q-3.482-.012-6.965-.018a3837 3837 0 0 1-18.292-.098c-6.227-.041-12.455-.06-18.682-.08Q62.313 174.13 44 174c3.16-3.207 6.205-6.021 9.922-8.566l2.831-1.953 2.997-2.043 6.242-4.301 3.1-2.132c3.949-2.723 7.87-5.483 11.783-8.255l6.11-4.323c14.707-10.414 29.464-20.755 44.238-31.075l7.452-5.207C145.821 101.149 152.911 96.075 160 91q-9.558-.074-19.116-.11-3.254-.015-6.507-.04a1895 1895 0 0 0-9.338-.045l-2.951-.032h-2.73l-2.41-.014c-2.184.067-2.184.067-3.948 2.241-.958 4.102-.958 4.102 0 8 2.69 2.69 5.515 4.886 8.594 7.117L124 110v2c-2.047 1.762-2.047 1.762-4.75 3.688l-2.672 1.949C114 119 114 119 111.953 118.926c-6.624-3.14-11.818-8.812-14.363-15.637-1.624-6.302-1.2-11.655 2.004-17.363 4.598-6.297 9.549-10.057 17.418-10.046"/></svg>