<svg xmlns="http://www.w3.org/2000/svg" width="360" height="360"><path fill="#DBB96C" d="M178.25 94.938 186 95v23c-3.948.987-7.016 1.068-11.062 1-5.062-.115-5.062-.115-9.938 1 .128 2.41.128 2.41 1 5 2.148 1.686 2.148 1.686 4.813 2.938 5.6 3.132 7.965 6.13 10.437 12.062 1.862 7.567 1.72 16.03-1 23.313-1.38 3.885-1.228 5.748.5 9.5A583 583 0 0 0 183 177c2.168 7.587 1.018 14.836-2 22-3.361 6.013-7.819 8.159-14.219 10.273-6.617 1.73-12.857 1.85-19.656 1.79l-2.953-.014q-3.585-.018-7.172-.049 3.092.85 6.188 1.688l1.99.54a285 285 0 0 0 12.177 2.975l2.771.622q2.684.599 5.375 1.16c9.3 2.088 17.111 5.895 22.499 14.015 1.962 5.886 2.017 12.602-.562 18.313-4.264 7.213-10.037 10.517-17.954 12.87C154.86 266.61 134.97 268.886 121 262c-3.624-2.869-5.968-5.458-7-10-.373-5.552.67-9.131 4.313-13.375 2.38-2.51 4.88-4.605 7.687-6.625l-1.645-.848c-3.795-2.127-6.06-3.702-8.48-7.402-1.11-4.761-.905-8.28 1.125-12.75 1.866-2.122 3.629-3.402 6-5l-1.277-1.863-1.66-2.45-1.653-2.425c-3.885-6.23-3.127-15.12-2.41-22.262.987-3.445 2.187-5.884 4-9l-1.875-2c-4.197-5.926-4.864-12.913-4.125-20 1.266-6.938 3.56-12.374 9-17 8.97-6.154 19.492-6.325 30-6l-.477-1.637c-1.318-5.95-1.95-13.032 1.415-18.363 6.044-7.08 15.609-8.162 24.312-8.062M137 147c.169 4.85.169 4.85 2.625 8.875 3.735 1.77 7.218 2.69 11.313 1.617 3.458-1.369 4.972-2.357 7.062-5.492.16-3.546.16-3.546-1-7-7.002-5.168-14.089-3.911-20 2m4.875 32.625c-2.097 2.279-2.097 2.279-2.437 5.375.675 3.603 1.729 4.75 4.562 7 3.468 1.734 7.208 1.465 11 1 3.612-1.956 4.694-3.135 6.063-7 .235-3.096.235-3.096-1.875-5.312-5.127-3.956-11.625-4.02-17.313-1.063M137 234q.43 3.51 1 7c4.093 1.95 7.424 2.27 11.938 2.25l3.59.016C157 243 159.76 242.246 163 241v-3c-13.27-5.53-13.27-5.53-26-4"/><path fill="#E4C77B" d="M280 159c5.137 4.336 7.606 9.5 9 16 .342 4.696.285 9.357.188 14.063l-.042 3.779q-.053 4.579-.146 9.158l10-2c.108 2.772.187 5.54.25 8.313l.102 2.38c.098 5.804.098 5.804-2.11 8.272-6.784 3.132-13.97 3.901-21.242 2.035-4.818-2.381-7.734-5.787-11-10l-2.012 1.68-2.675 2.195-2.637 2.18c-5.39 3.918-11.396 5.395-18.016 4.699-4.798-.902-8.268-2.063-11.66-5.754-3.325-6.076-3.968-11.302-2.062-17.937 4.07-9.451 14.06-13.987 22.937-17.938q3.06-1.4 6.117-2.805l2.699-1.21c2.495-1.133 2.495-1.133 5.309-3.11-7.94-3.464-14.038-4.168-22.375-1.5-6.334 2.539-11.452 6.088-16.625 10.5l-2.656 2.016c-6.314 5.874-6.882 11.003-7.31 19.397-.141 5.536-.132 11.05-.034 16.587h-23v-66h23l1 12 3.563-3.25c16.046-13.818 43.539-15.404 61.437-3.75m-13 27a723 723 0 0 0-6.75 3.688l-1.922 1.029c-4.022 2.241-6.652 4.424-9.328 8.283l2 5c3.177.556 5.282.43 8.074-1.242 5.06-4.059 7.984-8.247 8.926-14.758z"/><path fill="#E2C377" d="M69 152c3.897-.135 7.79-.234 11.688-.312l3.341-.127c8.13-.123 8.13-.123 12.178 2.584 3.23 5.142 2.935 10.74 2.89 16.66 0 .724-.002 1.448-.004 2.194-.005 2.292-.018 4.584-.03 6.876q-.009 2.343-.014 4.688Q99.032 190.282 99 196h8v23H68v-23h8v-22h-7z"/><path fill="#F9E8A8" d="M178.25 94.938 186 95v23c-3.948.987-7.016 1.068-11.062 1-5.062-.115-5.062-.115-9.938 1 .128 2.41.128 2.41 1 5 2.148 1.686 2.148 1.686 4.813 2.938 5.6 3.132 7.965 6.13 10.437 12.062 2.124 8.59 1.774 18.107-2.25 26l-2 1v-13h3v-9h-2l-.312-3.312c-.661-3.544-.89-4.62-3.688-6.688l-3 1v-5l-2 1-.687-1.937c-1.148-2.273-1.148-2.273-3.625-2.875-2.78-.194-4.984.211-7.688.812l-1-1-2.5.563c-3.31.413-4.665.239-7.75-.626-5.191-1.31-9.697-.579-14.75 1.063l-3 2-.375 2.438c-.625 2.562-.625 2.562-3 4.125L122 138c-2.382 2.629-3 3.388-3 7-.577 2.693-1.301 5.335-2 8l2-2a438 438 0 0 1 1.5 11.125c.388 3.651.388 3.651 1.121 6.254.463 3.204-.129 5.347-1.058 8.434l-.872 2.957L119 182h-2v6h-1c-.518-7.695.25-13.219 4-20l-1.875-2c-4.197-5.926-4.864-12.913-4.125-20 1.266-6.938 3.56-12.374 9-17 8.97-6.154 19.492-6.325 30-6l-.477-1.637c-1.318-5.95-1.95-13.032 1.415-18.363 6.044-7.08 15.609-8.162 24.312-8.062"/><path fill="#DAB86A" d="m258 180 1 2h2l1 3-5 1-.187 2.313c-.813 2.687-.813 2.687-3.25 4.5C251 194 251 194 249 194l2 9c2.98.436 5.171.456 7.852-1.02 4.977-3.843 6.74-7.946 8.148-13.98h1v5l4 2c-4.625 5.875-4.625 5.875-8 7v5l1.715.367 2.223.508 2.214.492C272 209 272 209 273 211c.04 1.666.044 3.334 0 5h3.813c7.562 0 7.562 0 11.187 2l4-3v2l5-1v3c-6.447 2.84-12.942 3.542-19.875 2.313-5.492-2.307-8.507-5.705-12.125-10.313l-2.012 1.68-2.675 2.195-2.637 2.18c-5.39 3.918-11.396 5.395-18.016 4.699-4.798-.902-8.268-2.063-11.66-5.754-2.979-5.444-4.05-10.07-2.426-16.148 1.87-5.481 1.87-5.481 5.426-7.852 6.14-2.274 6.14-2.274 9.75-1.125L243 192h3l-.062-2.875C246 186 246 186 247 184c2.566-.642 5.138-1.022 7.75-1.437L257 182z"/><path fill="#F8E6A4" d="M95 111c2.5 2.313 2.5 2.313 4 5 .089 4.257-.712 5.677-3.562 8.875L93 127l2.438 1.625C98 131 98 131 99.125 133.875c-.143 3.585-1.143 5.275-3.605 7.867-4.253 3.52-9.222 3.723-14.52 3.258-5.054-1.628-8.366-3.281-11-8-.089-4.257.712-5.677 3.563-8.875L76 126l-2.437-1.625C71 122 71 122 69.875 119.125c.143-3.585 1.143-5.275 3.605-7.867 6.406-5.303 14.74-3.968 21.52-.258"/><path fill="#AA7726" d="m117 217 3 1-1 4 3-1-1 5h5l1 3 2 1q-.173 2.22-.375 4.438c-.07.823-.14 1.647-.21 2.496L128 239l-2 1-3-1-3 1c-1.24 5.577-.865 10.377 0 16 2.49.687 4.379 1 7 1 1 3 1 3 1 5 2.665.359 5.33.687 8 1l2.816.36c8.569.938 15.898-.25 24.184-2.36l-1-2 1-2c1.95.03 1.95.03 3.938.063A59 59 0 0 0 171 257l1-1c2-.04 4-.043 6 0 .772-1.837.772-1.837 1-4-1.354-1.772-1.354-1.772-3-3l2-1-.219-2.23c.276-3.489 1.34-4.576 3.719-7.083l1.969-2.113L185 235l-2-4-1.875.625L179 232l-2-2 2-4c5.501 1.467 5.501 1.467 7.813 3.938 2.924 5.079 2.733 10.368 2.187 16.062-1.747 6.166-5.574 10.685-11 14-15.546 7.316-38.746 8.738-55.082 2.945-3.896-1.92-6.071-4.56-8.293-8.195-.944-4.154-.915-7.668.375-11.75 2.972-4.489 6.651-7.87 11-11l-1.68-.988-2.195-1.325-2.18-1.3C118 227 118 227 116 224c.375-3.687.375-3.687 1-7m64 31-1 4h2l1-4z"/><path fill="#F5E6AD" d="M153 119h3c.313 2.25.313 2.25 0 5-1.875 2.438-1.875 2.438-5 4-2.505-.306-4.852-.917-7.297-1.54-5.63-.959-11.007.41-15.703 3.54l-.375 2.438c-.625 2.562-.625 2.562-3 4.125L122 138c-2.382 2.629-3 3.388-3 7-.577 2.693-1.301 5.335-2 8l2-2a438 438 0 0 1 1.5 11.125c.388 3.651.388 3.651 1.121 6.254.463 3.204-.129 5.347-1.058 8.434l-.872 2.957L119 182h-2v6h-1c-.518-7.695.25-13.219 4-20l-1.875-2c-4.197-5.926-4.864-12.913-4.125-20 1.266-6.938 3.56-12.374 9-17 8.97-6.154 19.492-6.325 30-6z"/><path fill="#EDDA9B" d="M280 159c3.85 3.412 6.677 6.674 7 12l-5 1-2-11c-6.488-.726-6.488-.726-13-1h-2v-2c-3.478-1.16-5.459-.708-9 0v-3l-1-2c-3.432.264-3.432.264-7 1-2.185 2.676-2.185 2.676-2 5-5.75-.875-5.75-.875-8-2v2l-1.715-.57c-4.05-.762-7.673.75-11.285 2.57-1.955 2.53-1.955 2.53-3 5h-2v2l-5 1c.502-4.08 2.418-5.571 5.563-8.062 4.34-3.315 8.142-5.63 13.437-6.938l2.414-.613c14.634-3.173 30.775-2.788 43.586 5.613"/><path fill="#CAA963" d="M264 208c5.429-.362 5.429-.362 7.875 1.188 1.473 2.372 1.347 4.071 1.125 6.812h3.813c7.562 0 7.562 0 11.187 2l4-3v2l5-1v3c-6.447 2.84-12.942 3.542-19.875 2.313-5.492-2.307-8.507-5.705-12.125-10.313l-2.012 1.68-2.675 2.195-2.637 2.18c-5.398 3.924-11.565 5.577-18.192 4.558A121 121 0 0 1 233 220v-3h10a530 530 0 0 0 5-1h7l2-3h4l1-3h2z"/><path fill="#AF8D4F" d="m143 231 2.25.5c3.917.712 7.78.578 11.75.5l1 3 1.313-1.5C161 232 161 232 164 232v2l3 1c1.25 1.875 1.25 1.875 2 4l-1 3a100 100 0 0 0 0 5l-2.187-.562c-2.723-.608-2.723-.608-5 .093-3.661.61-6.998.09-10.625-.469l-2.1-.302A713 713 0 0 1 143 245v3l-5-1v-2l-1.477-1.34c-1.974-2.151-1.926-3.343-1.898-6.222l-.023-2.38L135 233c3.307-2.204 4.183-2.273 8-2m-6 3q.43 3.51 1 7c4.093 1.95 7.424 2.27 11.938 2.25l3.59.016C157 243 159.76 242.246 163 241v-3c-13.27-5.53-13.27-5.53-26-4m28 1 1 2Z"/><path fill="#F0E1A4" d="M148.313 135.875c5.207.177 5.207.177 7.687 1.125 4.167 5.414 4.442 11.82 4.434 18.398C160 158 160 158 158.723 159.914 157 161 157 161 155.234 160.723L153 160q-3.371-.328-6.75-.562l-3.547-.254L140 159v-2l-4-1c-1.008-4.79-1.58-7.68.938-12l2.062-3-2-1v-3c2.929.628 5.361 1.586 8 3l-1-3c1-1 1-1 4.313-1.125M137 147c.169 4.85.169 4.85 2.625 8.875 3.735 1.77 7.218 2.69 11.313 1.617 3.458-1.369 4.972-2.357 7.062-5.492.16-3.546.16-3.546-1-7-7.002-5.168-14.089-3.911-20 2m-1 10 1 3-3-1z"/><path fill="#BB8937" d="M179 226c5.501 1.467 5.501 1.467 7.813 3.938 2.924 5.079 2.733 10.368 2.187 16.062-1.801 6.358-5.808 10.15-11 14l-2-1 3-7-3-3 2-1-.219-2.23c.276-3.489 1.34-4.576 3.719-7.083l1.969-2.113L185 235l-2-4-1.875.625L179 232l-2-2zm2 22-1 4h2l1-4z"/><path fill="#E5D39E" d="M69 152c3.897-.135 7.79-.234 11.688-.312l3.341-.127c8.13-.123 8.13-.123 12.178 2.584 3.136 4.994 2.915 10.23 2.89 16.003 0 .658-.002 1.315-.004 1.993-.005 2.078-.018 4.156-.03 6.234q-.009 2.127-.014 4.254Q99.032 187.814 99 193h-1l-.168-2.627q-.313-4.875-.632-9.75l-.27-4.202c-.685-10.737-.685-10.737-1.93-21.421l-2.375.625L90 156l-2-2a94 94 0 0 0-7.625-.125l-2.14.027c-1.746.024-3.49.06-5.235.098l-.184 2.047-.254 2.703c-.08.882-.162 1.763-.246 2.672A44 44 0 0 1 71 168h4c1.75 2 1.75 2 3 4-6.75 2-6.75 2-9 2z"/><path fill="#B58A4A" d="m117 217 3 1-1 4 3-1-1 5h5l1 3 2 1q-.173 2.22-.375 4.438c-.07.823-.14 1.647-.21 2.496L128 239l-2 1-3-1-3 1c-.7 3.153-1 5.727-1 9-.553 2.951-1.585 5.358-3 8-2.17-3.955-2.34-7.286-1.742-11.652 1.85-5.854 6.91-9.87 11.742-13.348l-1.68-.988-2.195-1.325-2.18-1.3C118 227 118 227 116 224c.375-3.687.375-3.687 1-7"/><path fill="#C6A664" d="M135 209c2 1 2 1 5 3 2.399.656 4.77 1.237 7.195 1.77l4.36 1.005q3.414.78 6.832 1.54c20.94 4.675 20.94 4.675 25.613 11.685l-1.75-.75L180 227c-2.271 1.854-2.271 1.854-4 4l.563-2.375c.697-2.596.697-2.596-.563-4.625h-7v-3h-3l-1 3-2-3c-2.06-.724-2.06-.724-4-1v3l-7 1 4-5q-2.156-.253-4.312-.5l-2.426-.281c-2.381-.267-2.381-.267-5.262-.219l-1-2c-3.575-1.076-3.575-1.076-7 0z"/><path fill="#E2CA86" d="m140 175 1.723.219c4.792.576 9.44.88 14.277.781h10c.326 4.675-.294 7.167-3 11l3 1c-.71 1.953-.71 1.953-2 4-2.164.61-2.164.61-4.625.75l-2.477.172L155 193l2.563-2.625c2.136-2.562 2.432-3.115 2.5-6.625-.778-2.808-.778-2.808-2.82-3.898-4.017-1.526-8.02-1.406-12.243-.852-4.076 2.293-5.644 4.561-7 9l-2-2c0-4 0-4 1-7l2-1z"/><path fill="#F3E5AC" d="M163 120c.22.59.438 1.18.664 1.79 1.762 2.916 3.766 3.903 6.711 5.585 5.97 3.668 9.58 7.386 11.309 14.379 1.185 8.417 1.218 16.592-2.684 24.246l-2 1v-13h3v-9h-2l-.312-3.312c-.661-3.544-.89-4.62-3.688-6.688l-3 1v-5l-2 1-.75-1.937c-1.066-2.25-1.066-2.25-3.375-2.813L163 127a129 129 0 0 1-1-6z"/><path fill="#E2D19A" d="M191 154h23c.125 11.75.125 11.75-1 14l-4-1 1-4-2-1 .5-1.875c.576-2.086.576-2.086.5-4.125l-15 1-2 27h-1z"/><path fill="#BBA574" d="M98 196h9v23H68v-11c2.565 2.565 2.54 4.477 3 8q6.809.037 13.617.055 2.317.008 4.636.02c2.216.013 4.433.018 6.65.023l2.105.015c1.664 0 3.329-.051 4.992-.113 1.5-1.5 1.316-2.947 1.535-5.035l.264-2.451.263-2.577.276-2.587q.336-3.175.662-6.35h-8z"/><path fill="#C9AF76" d="M191 184h1c1.1 11.68 1.1 23.28 1 35h16l-1-5 4-1 1-16h1v23h-23z"/><path fill="#F2DD97" d="m117 142 3 2-1.125 3.313L118 151l2 3c0 2.004-.004 4.009-.062 6.012.082 2.618 1.03 4.601 2.062 6.988.67 4.823-1.03 9.625-3 14l-2 1v6h-1c-.518-7.695.25-13.219 4-20l-1.937-2.312c-4.101-5.344-3.43-11.22-3.063-17.688 1-3.75 1-3.75 2-6"/><path fill="#E5CC86" d="M177 167c5.62 4.959 6.614 11.33 7.375 18.563-.511 4.686-1.87 8.982-3.375 13.437-1.044-3.133-.934-3.99 0-7h-2l-1-5 3-2-1.937-2.375c-2.793-4.14-3.107-8.72-3.063-13.625z"/><path fill="#D3B978" d="M288 176h1v26l10-2v17l-2 1-.078-1.898-.172-2.477-.14-2.46c-.403-2.328-.403-2.328-2.532-3.454-2.027-.819-2.027-.819-4.078-.711-2.145-3.488-2.234-6.244-2.195-10.297l.02-3.652.05-3.801.027-3.848q.036-4.701.098-9.402"/><path fill="#BA8A38" d="M166 235c1.563 1.813 1.563 1.813 3 4l-1 3a100 100 0 0 0 0 5l-2.187-.562c-2.723-.608-2.723-.608-5 .093-3.661.61-6.998.09-10.625-.469l-2.1-.302A713 713 0 0 1 143 245v3l-5-1v-4h25z"/><path fill="#EDD898" d="m244 156-2 3-4-2v2l-1.715-.57c-4.05-.762-7.673.75-11.285 2.57-1.955 2.53-1.955 2.53-3 5h-2v2l-5 1c.332-3.015.973-3.974 3.215-6.105l2.722-2.083 2.715-2.105c3.37-2.45 5.541-2.942 9.66-3.332l2.864-.29c2.793-.084 5.118.255 7.824.915"/><path fill="#ECDA9F" d="M137 144h2l-.75 3.75c-.376 3.126-.455 3.917 1.25 6.688 5.339 3.336 10.534 2.575 16.5 1.562h4l-2 5-2.074-.465c-3.25-.594-6.443-.864-9.738-1.097l-3.52-.254L140 159v-2l-4-1c-1.429-8.571-1.429-8.571 1-12m-1 13 1 3-3-1z"/><path fill="#DCC684" d="M247 182v2h-3l1.563 1.75C247 188 247 188 246.688 190.25L246 192c-2.703 1.001-3.684 1.141-6.375-.062-3.492-1.248-5.285-.336-8.625 1.062 1.474-3.862 3.453-5.182 7-7.187l2.688-1.543C244.822 182 244.822 182 247 182"/><path fill="#F2E5B1" d="M78 127v2l-1.937.75c-2.25 1.066-2.25 1.066-2.813 3.375L73 135l3 2 2 5 13 1v-2l3-2 3 1c-5.416 4.664-8.849 5.485-16 5-5.054-1.628-8.366-3.281-11-8-.062-3.062-.062-3.062 1-6 4.105-4 4.105-4 7-4"/><path fill="#E9D299" d="m251.813 167.25 2.158.082c4.408.253 7.582.823 11.029 3.668v3l-2.75-1.437c-6.274-3.017-12.442-3.681-19.176-1.704A233 233 0 0 0 235 174l-3 1c.875-4.75.875-4.75 2-7l6.055.098c3.983-.2 7.525-1.097 11.757-.848"/><path fill="#D9BE7A" d="M139 183h1l.75 3.375c.835 3.608.835 3.608 3.031 4.813 2.375.87 4.453 1.215 6.969 1.437l2.422.227L155 193l-2 7c-3.625.201-5.865-.142-9-2v-4c-2.923-2.282-2.923-2.282-6-4z"/><path fill="#DABD77" d="M267 188h1v5l4 2c-4.625 5.875-4.625 5.875-8 7l-1.332 1.55c-2.413 2.097-4.22 1.748-7.356 1.637l-3.011-.082L250 205l1-2 2.563.375c4.172-.455 5.863-1.649 8.89-4.441 2.606-3.258 3.61-6.92 4.547-10.934"/><path fill="#C09A4F" d="M179 226c5.501 1.467 5.501 1.467 7.813 3.938 2.06 3.58 2.347 6.505 2.375 10.562l.042 2.906C189 246 189 246 187 249v-10h-2l-1-3 1-2-2-3-1.875.625L179 232l-2-2z"/><path fill="#F4E7BB" d="m95 111 1 2-2.812-1c-4.927-1.397-10.12-1.722-15.188-1-3.459 1.978-3.92 2.766-5.25 6.688L72 121h2l-1 3c-1.847-2.586-2.982-4.282-3.062-7.5 1.73-4.07 4.944-6.612 9-8.312 6.334-.576 10.461-.1 16.062 2.812"/><path fill="#CCAD69" d="M68 208c2.565 2.565 2.54 4.477 3 8q6.809.037 13.617.055 2.317.008 4.636.02c2.216.013 4.433.018 6.65.023l2.105.015c1.664 0 3.329-.051 4.992-.113 1.968-1.968 1.662-5.348 2-8h1q.039 2.219.063 4.438l.035 2.496C106 217 106 217 105 218c-2.739.089-5.453.115-8.191.098l-2.485-.005c-2.629-.005-5.258-.018-7.886-.03l-5.334-.014Q74.552 218.032 68 218z"/><path fill="#F3E8BD" d="M178.438 94.875 186 95v23l-3 1 .465-2.445c.624-4.146.881-8.247 1.097-12.43L185 96l-18 1v2h-6c4.605-4.605 11.323-4.27 17.438-4.125"/><path fill="#E3D29A" d="m116 160 1.875 2.375c2.024 2.593 2.024 2.593 4.125 4.625.725 4.786-1.046 9.663-3 14l-2 1v6h-1c-.518-7.695.25-13.219 4-20l-2-2.312C116 163 116 163 116 160"/><path fill="#CCA152" d="m117 217 3 1-1 4 3-1-1 5h5l1 3c-3.25.313-3.25.313-7 0-2.5-2.062-2.5-2.062-4-5 .25-3.812.25-3.812 1-7"/><path fill="#EAD58F" d="m70 153 3 1a1136 1136 0 0 1-.437 4.75l-.247 2.672A44 44 0 0 1 71 168h4c1.75 2 1.75 2 3 4l-1 1h-7z"/><path fill="#EBD99D" d="M181 144h1c.569 15 .569 15-3 22l-2 1v-13h3z"/><path fill="#DDC383" d="M181 182h3c.402 6.166-1.032 11.177-3 17-1.044-3.133-.934-3.99 0-7h-2l-1-5 3-2z"/><path fill="#CCB077" d="M213 197h1v23h-5l-1-6 4-1z"/><path fill="#BD9450" d="m152.75 231.875 2.422.055L157 232l1 3 1.313-1.5C161 232 161 232 164 232v2l2 1-1 2-21-3c3.744-1.872 4.84-2.24 8.75-2.125"/><path fill="#F9E59F" d="M148.313 135.875c2.833.096 5.023.273 7.687 1.125l1 4c-3.12 1.04-4.002 1.005-7.062.25l-2.098-.484C146 140 146 140 144 137c1-1 1-1 4.313-1.125"/><path fill="#A77E36" d="M182 250h5c-2.319 4.509-5.065 6.94-9 10l-2-1c.75-2.937.75-2.937 2-6 2.125-.875 2.125-.875 4-1z"/><path fill="#EFD88E" d="M211 155h2v13l-4-1 1-4-2-1c.613-2.962 1.254-4.38 3-7"/><path fill="#F2E4B1" d="m123 129 1 3-2.5 2.188c-2.744 2.541-2.744 2.541-2.812 5.625L119 142h-2l-2 13h-1c-.418-8.643.396-16.334 6.188-23.125.921-.973 1.853-1.938 2.812-2.875"/><path fill="#F8E59E" d="m124 129 2 1c.625 2.563.625 2.563 1 5l-2.375 1.313c-2.842 1.58-2.842 1.58-4.625 4.687h-2c.526-3.788 1.381-6.172 4-9h2z"/><path fill="#DABB71" d="M106 197v11h-1v-6l-3 1-5-5c2.957-1.478 5.742-1.06 9-1"/><path fill="#AD601E" d="m164 261 1 2c-4.315 2.407-8.148 2.51-13 2.75l-2.445.168-2.368.129-2.144.12c-2.402-.196-3.968-.977-6.043-2.167l3.813.125c5.544.009 10.776-1.002 16.187-2.125z"/><path fill="#C7AC74" d="M264 208h3c3.223 5.273 3.223 5.273 4 7l-1 2-4-6-1.645 1.277-2.168 1.66-2.144 1.653C258 217 258 217 255 218l2-5h4l1-3h2z"/><path fill="#C09240" d="m122 229 7 1q-.173 2.22-.375 4.438c-.07.823-.14 1.647-.21 2.496L128 239l-2 1-3-1-2 1c1.372-2.954 2.989-5.44 5-8z"/><path fill="#DDC17E" d="m161 185 1 2c2.025.652 2.025.652 4 1-.71 1.953-.71 1.953-2 4-2.164.61-2.164.61-4.625.75l-2.477.172L155 193l3.809-4.492c1.279-1.514 1.279-1.514 2.191-3.508"/><path fill="#D7C188" d="m265 188-2.484 1.39-3.266 1.86-3.234 1.828c-2.76 1.759-4.822 3.515-7.016 5.922v-5c6.75-4 6.75-4 9-4v-2c3.01-.934 3.867-1.044 7 0"/><path fill="#F2E6B9" d="M161 99v3l-5 1c-1.916 4.982-2.555 9.727-3 15h-1c-.86-10.58-.86-10.58 2.375-15.125C157.913 99 157.913 99 161 99"/><path fill="#D2B87E" d="M264 197c0 2.648-.172 4.516-1 7-2.645 1.322-4.678 1.097-7.625 1.063l-3.04-.028L250 205l1-2 2.563.375c4.817-.525 7.091-3.05 10.437-6.375"/><path fill="#E3C375" d="m240 187 7 1-1 4c-2.606.93-3.642 1.15-6.25.063L238 191z"/><path fill="#B28C4C" d="m186 234 3 1c.054 1.77.093 3.541.125 5.313l.07 2.988C189 246 189 246 187 249v-10h-2l-1-3z"/><path fill="#C9B583" d="M299 200v17h-1v-14h-8c6-3 6-3 9-3"/><path fill="#D0BA83" d="m229 193 2 1v3h-3l-1 12h-2c-.363-5.803.695-9.652 3-15z"/><path fill="#D7B361" d="M229 201c2 3.75 2 3.75 2 6-1.5 1.625-1.5 1.625-3 3l3-1 1 4-3 2c-1.858-3.135-2.201-5.375-2-9h2l-1-3z"/><path fill="#AE7721" d="M163 257c5.52-.368 5.52-.368 7.875 1.438C172 260 172 260 172 261h-9l-1-2z"/><path fill="#E4CA88" d="M119 173h1c.074 3.343.065 5.804-1 9h-2v6h-1v-11l3-1z"/><path fill="#9D6E28" d="M123 262c5.738-.204 10.605-.271 16 2v1c-5.789.207-10.43-.408-16-2z"/><path fill="#F0DA91" d="m160 156-2 5-6-2c1.855-3.71 4.208-4.264 8-3"/><path fill="#D1AB5C" d="M213 213v6h-4l-1-5c3.875-1 3.875-1 5-1"/><path fill="#E2CA87" d="m221 177 .375 1.938L222 181l2 1-4 4v-4l-2 1c.573-2.867.861-3.861 3-6"/><path fill="#B58633" d="M185 244h2v6h-5z"/><path fill="#B69552" d="m143 231 1 2-3.375.813c-3.843.845-3.843.845-5.625 4.187-.187-2.375-.187-2.375 0-5 3.228-2.152 4.284-2.2 8-2"/><path fill="#E7D093" d="M177 167a91 91 0 0 1 4 4v2l-4 2c-1.125-5.75-1.125-5.75 0-8"/><path fill="#CCB67D" d="M176 205a205 205 0 0 1-3.75 2.063l-2.11 1.16c-2.501.908-3.673.66-6.14-.223l6-1v-2c2.49-1.245 3.41-.777 6 0"/><path fill="#D9BA7A" d="M178 197h2c-.312 2.375-.312 2.375-1 5l-3 2-1-4 3-1z"/><path fill="#BA9255" d="m122 229 7 1-1 5-4-1 2-2z"/><path fill="#E1D090" d="m232 176-7 5-2-2h2l1-3c3-1 3-1 6 0"/><path fill="#9D7634" d="M117 255a159 159 0 0 1 6 5v2c-2.437-.687-2.437-.687-5-2-.812-2.625-.812-2.625-1-5"/><path fill="#B78333" d="m120 246-2 7-3-4c2.75-3 2.75-3 5-3"/><path fill="#CBA451" d="m157 219 2 1v3l-7 1z"/><path fill="#DDBE7C" d="M234 188h4l-1 3c-3.062 1.188-3.062 1.188-6 2 1.875-3.875 1.875-3.875 3-5"/><path fill="#E4C77F" d="M137 179h2v8h-3l.563-1.875c.674-2.167.674-2.167-.563-4.125z"/><path fill="#A47E48" d="m114 246 .938 1.938c.897 1.998.897 1.998 2.062 3.062.04 2 .043 4 0 6-2.398-2.398-2.343-3.333-2.625-6.625l-.227-2.477z"/><path fill="#B89E63" d="M116 220c2.969 2.545 4.362 5.49 6 9-3.161-1.37-3.993-1.99-6-5z"/><path fill="#E6D28B" d="M287 171c1.984 2.917 1.988 4.124 1.625 7.75L288 182h-1l-.437-3.312c-.446-3.62-.446-3.62-1.563-6.688z"/><path fill="#EBD589" d="m222 162 2 2-4 2v2l-3-1z"/></svg>